<svg id="Layer_1" data-name="Layer 1" xmlns="http://www.w3.org/2000/svg" viewBox="0 0 458.74 400.1"><defs><style>.cls-1{fill:#add5c9;}.cls-2,.cls-3{fill:#631c42;}.cls-3{font-size:54.56px;font-family:ITCAvantGardeStd-Bk, ITC Avant Garde Gothic Std;}</style></defs><title>finallogo</title><path class="cls-1" d="M236,235.69l.38-6c.29-3.94.68-9.73,1.37-17.08s1.64-16.28,3.18-26.48,3.54-21.71,6.51-34.13a305.06,305.06,0,0,1,12.22-39.6,204.44,204.44,0,0,1,9.45-20.89A158.77,158.77,0,0,1,282,70.81a113.39,113.39,0,0,1,17.51-19,83.59,83.59,0,0,1,23.35-14.24,78.89,78.89,0,0,1,13.6-4.07L338,33.2l.77-.15.88-.15c1.18-.2,2.37-.41,3.49-.56,2.27-.34,4.57-.58,6.89-.76a93.84,93.84,0,0,1,41.74,6.12,99.94,99.94,0,0,1,12.85,6.17,109,109,0,0,1,22.35,17,131,131,0,0,1,29.43,44.49c1.62,4,3,8,4.25,12.07.63,2,1.16,4,1.69,6.07l.74,3,.35,1.51.17.76.1.45,0,.17.07.35.13.7.16,1c.1.65.22,1.37.28,1.87.15,1.11.28,2.19.38,3.24.23,2.11.37,4.15.47,6.19.19,4,.26,8,.12,11.92s-.36,7.77-.74,11.58-1,7.57-1.66,11.28l0,.17s-.08.46-.06.35l-.07.31-.14.62-.27,1.24-.56,2.5c-.44,1.8-.88,3.65-1.36,5.32q-1.42,5.07-3,9.81a217.58,217.58,0,0,1-14.5,32.75,248.44,248.44,0,0,1-14.3,23.14c-4.3,6.17-8,10.8-10.55,13.89-1.3,1.54-2.29,2.72-3,3.5L414,272.26a1.38,1.38,0,0,1-2.31-1.41v0l2.11-5.69c1.35-3.73,3.34-9.17,5.74-16.08s5.22-15.29,8.06-24.9a315.72,315.72,0,0,0,8-32.17c.57-2.93,1.07-5.91,1.5-8.94.23-1.52.34-2.93.56-4.41l.27-2.46.14-1.26.07-.63,0-.32c0-.22,0,.12,0,0v-.14a145.94,145.94,0,0,0,.31-19.07c-.18-3.3-.39-6.66-.76-10-.2-1.66-.39-3.33-.62-4.93-.11-.81-.24-1.6-.37-2.35-.07-.43-.12-.63-.18-.92l-.08-.41-.16-.69-.57-2.3-.67-2.52c-.47-1.68-1-3.35-1.48-5-1-3.36-2.19-6.7-3.43-10-5.05-13.28-11.87-26.46-21.39-37.55a81.05,81.05,0,0,0-16.18-14.55,69.56,69.56,0,0,0-19.68-9.11,73.75,73.75,0,0,0-21.83-2.69c-1.86,0-3.73.13-5.6.32-1,.07-1.82.18-2.71.28l-.66.07-.77.11-1.55.23A59.93,59.93,0,0,0,329.4,55.2a69.77,69.77,0,0,0-19.06,10.17,96.83,96.83,0,0,0-16,15.21c-9.57,11.31-16.92,24.19-23,36.84a294,294,0,0,0-14.51,37.17c-1.88,5.93-3.55,11.66-5.06,17.14s-2.79,10.73-3.94,15.69-2.15,9.61-3,13.93-1.66,8.3-2.32,11.9c-1.34,7.21-2.23,12.9-2.87,16.77l-.92,6a1.36,1.36,0,0,1-2.7-.29Z" transform="translate(-6.65 -27.64)"/><path class="cls-1" d="M103.67,242.91l-1.59.14c-1.05.1-2.59.25-4.72.3l-1.68.06-1.84,0-2,0-2.2-.12a73.65,73.65,0,0,1-10.45-1.31,84.57,84.57,0,0,1-26.92-10.17A94.51,94.51,0,0,1,24,206.44a85.91,85.91,0,0,1-6-9.18c-.92-1.64-1.82-3.33-2.65-5.09-.44-.87-.81-1.78-1.21-2.69l-.3-.68-.29-.78-.44-1.24c-.59-1.54-1.21-3.59-1.8-5.49s-1.06-3.75-1.5-5.68A108.49,108.49,0,0,1,7.6,163.79a120.18,120.18,0,0,1,4.47-50.58A127.81,127.81,0,0,1,38.86,65.7,114.07,114.07,0,0,1,86.43,33.44a105.77,105.77,0,0,1,14.34-3.89,108.19,108.19,0,0,1,14.76-1.77c1.24,0,2.47-.11,3.71-.13h3.71l3.69.16c1.23.06,2.45.19,3.68.28s2.44.26,3.65.4,2.42.32,3.63.52l1.8.3,1.05.19.79.15.79.15,1,.22,2,.47a82.38,82.38,0,0,1,14.43,5.1,88.06,88.06,0,0,1,13,7.46,98.8,98.8,0,0,1,11.2,9.13,116,116,0,0,1,9.49,10.16c11.53,14.09,19.29,29.23,25.17,43.78q2.2,5.47,4.06,10.83c1.23,3.58,2.35,7.13,3.39,10.62s2,6.93,2.85,10.33l1.21,5c.39,1.6.76,3.34,1.14,5a331.32,331.32,0,0,1,5.79,35.93c1.17,10.71,1.68,20.06,2,27.75s.23,13.73.18,17.84-.14,6.31-.14,6.31h0a1.37,1.37,0,0,1-2.7.27l-5.71-23.26c-1.83-7.36-4.14-16.26-7-26.32s-6.32-21.33-10.64-33.22c-.55-1.49-1-2.92-1.64-4.49l-1.76-4.63c-1.21-3.06-2.44-6.16-3.76-9.28s-2.71-6.26-4.18-9.41-3-6.32-4.6-9.47A201.46,201.46,0,0,0,186,97.27a130.08,130.08,0,0,0-13.28-17.16A91.23,91.23,0,0,0,165,72.64a74.51,74.51,0,0,0-8.35-6.37,62.38,62.38,0,0,0-18.59-8.43l-1.1-.28-.57-.14-.79-.17-.79-.17-.39-.08c.35.07,0,0,0,0l-.17,0-1.37-.24c-.91-.17-1.82-.33-2.74-.45s-1.83-.3-2.75-.38a89.73,89.73,0,0,0-11.07-.66,86.4,86.4,0,0,0-22,3.05,84.57,84.57,0,0,0-20.74,8.94,93.05,93.05,0,0,0-18,14.13,103.33,103.33,0,0,0-23.8,38.3,100.41,100.41,0,0,0-5.46,42.07,89.92,89.92,0,0,0,1.41,9.95c.29,1.63.69,3.22,1.06,4.8s.74,2.89,1.3,4.66l.68,2.26c.22.72.4,1.45.66,2.16.47,1.44,1,2.85,1.57,4.25a69.72,69.72,0,0,0,3.93,8.09,84.79,84.79,0,0,0,10,14,83.78,83.78,0,0,0,11.39,10.89,80.72,80.72,0,0,0,22.65,12.64,82.53,82.53,0,0,0,16.58,4.08c1.94.29,3.51.41,4.57.49l1.59.13a1.36,1.36,0,0,1,0,2.71Z" transform="translate(-6.65 -27.64)"/><path class="cls-2" d="M218.2,236.5c-4.38-6-8.43-12.23-12.3-18.53s-7.59-12.65-11.3-19-7.37-12.59-11.1-18.74c-1.89-3.07-3.77-6.11-5.69-9.1s-3.91-5.91-5.9-8.78a141.57,141.57,0,0,0-12.73-15.91A59.59,59.59,0,0,0,144.9,135a34.37,34.37,0,0,0-7.47-2.94,26.29,26.29,0,0,0-3.76-.66l-.24,0h-.1l-.68-.06-.68-.06h-.43c-.51,0-1.28,0-1.94,0a36.4,36.4,0,0,0-15.83,3.83,45.64,45.64,0,0,0-22.27,24.62,41.77,41.77,0,0,0-2.65,17,43.48,43.48,0,0,0,.48,4.59l.15,1,.21,1.13c.16.75.31,1.5.5,2.24a43.5,43.5,0,0,0,3.16,8.65,47.08,47.08,0,0,0,11.86,15,64.25,64.25,0,0,0,8.23,5.93c1.45.89,3,1.73,4.49,2.51l2.45,1.22,2.34,1.11a99.92,99.92,0,0,0,9.82,3.74c3.37,1.07,6.86,2,10.39,2.91,7.07,1.81,14.23,3.56,21.37,5.3a4.09,4.09,0,0,1,.27,7.87l-.12,0c-1,.31-2.19.75-3.29,1.17s-2.25.89-3.35,1.4c-2.21,1-4.39,2.1-6.52,3.27a76,76,0,0,0-11.91,8.22c-7.32,6.15-13.14,13.82-16.25,22.18a49.33,49.33,0,0,0-1.88,6.34,50.82,50.82,0,0,0-.91,6.47,54.75,54.75,0,0,0,.75,13,91.33,91.33,0,0,0,9.2,25.26c2.16,4.08,4.46,8.14,7.05,12.08s5.26,7.86,8.18,11.66c1.41,1.92,3,3.78,4.44,5.66l2.32,2.83c.42.52.77.91,1.14,1.34l1.11,1.28c3,3.49,6.31,6.89,9.63,10a108,108,0,0,0,21.51,16,80.5,80.5,0,0,0,24,8.89,83.56,83.56,0,0,0,25.64.9,114.7,114.7,0,0,0,26.22-6.32A178.1,178.1,0,0,0,287.19,380c4.2-2.31,8.34-4.79,12.43-7.39s8.16-5.3,12.16-8.13c8-5.64,15.82-11.7,23.49-18s15.15-13,22.51-19.78,14.58-13.87,21.69-21.06,14.13-14.56,21-22.09l0,0a1.37,1.37,0,0,1,2.22,1.55,299,299,0,0,1-15.84,26.55q-8.55,12.89-18.17,25.1c-6.41,8.13-13.16,16-20.3,23.65a309.21,309.21,0,0,1-22.62,21.88q-6,5.18-12.31,10.08c-4.24,3.22-8.59,6.35-13.08,9.32s-9.12,5.78-13.91,8.4a157.64,157.64,0,0,1-14.83,7.23A132,132,0,0,1,239,426.61a103.08,103.08,0,0,1-35.06-.79,98.55,98.55,0,0,1-17-5c-2.75-1.06-5.42-2.29-8.06-3.56s-5.17-2.73-7.65-4.24a119.66,119.66,0,0,1-14-10,144.52,144.52,0,0,1-12.32-11.51c-3.86-4-7.4-8.21-10.81-12.57l-1.29-1.68c-.42-.55-.89-1.14-1.24-1.63l-2.34-3.21c-1.51-2.22-3.07-4.39-4.52-6.67a162.11,162.11,0,0,1-15.45-28.87c-4.1-10.31-7-21.54-7.11-33.2a68.35,68.35,0,0,1,1.94-17.39,66.63,66.63,0,0,1,2.7-8.33,70,70,0,0,1,3.8-7.8,68.39,68.39,0,0,1,10.29-13.41,85.91,85.91,0,0,1,12.56-10.5,106.75,106.75,0,0,1,13.84-8.06q3.57-1.77,7.25-3.27c1.23-.49,2.47-1,3.72-1.45s2.46-.89,3.91-1.32l.15,7.91c-7.05-1.85-14.14-3.46-21.32-5-3.6-.77-7.22-1.58-10.89-2.51a110.33,110.33,0,0,1-11-3.31l-2.73-1-2.58-1c-1.85-.73-3.61-1.44-5.39-2.26a83.26,83.26,0,0,1-10.48-5.52,64.53,64.53,0,0,1-18.24-16.57,59.66,59.66,0,0,1-6.4-11.07c-.45-1-.84-2-1.24-3l-.56-1.5L71,185.73a55.2,55.2,0,0,1-1.69-6.17,57.75,57.75,0,0,1,.64-26.42A61.58,61.58,0,0,1,103.29,113,59.28,59.28,0,0,1,130,107.48c1.17,0,2.23.1,3.54.23l.94.09.69.09.68.09.58.08.44.07a49.71,49.71,0,0,1,7,1.59,52.85,52.85,0,0,1,6.58,2.51,58.26,58.26,0,0,1,6,3.29,75.32,75.32,0,0,1,18.69,17.23A136.51,136.51,0,0,1,188,152.48c1.86,3.36,3.54,6.77,5.18,10.18s3.19,6.83,4.65,10.27c3,6.87,5.63,13.79,8.2,20.71s5,13.86,7.38,20.79l7.22,20.81a1.37,1.37,0,0,1-2.4,1.26Z" transform="translate(-6.65 -27.64)"/><text class="cls-3" transform="translate(266.14 354.95) rotate(-30.28) scale(0.7)">D</text><text class="cls-3" transform="translate(290.74 340.26) rotate(-35.54) scale(0.7)">E</text><text class="cls-3" transform="translate(308 327.87) rotate(-38.77) scale(0.7)">S</text><text class="cls-3" transform="translate(323.89 314.98) rotate(-40.63) scale(0.7)">I</text><text class="cls-3" transform="matrix(0.51, -0.48, 0.48, 0.51, 330.88, 309.28)">G</text><text class="cls-3" transform="translate(354.98 286.75) rotate(-45.72) scale(0.7)">N</text><text class="cls-3" transform="matrix(0.68, -0.74, 0.74, 0.68, 374.72, 266.37)">.</text></svg>