<svg id="Layer_1" data-name="Layer 1" xmlns="http://www.w3.org/2000/svg" viewBox="0 0 413.21 360.4"><defs><style>.cls-1,.cls-3{fill:#678ece;}.cls-2{fill:#662d91;}.cls-3{font-size:49.15px;font-family:ITCAvantGardeStd-Bk, ITC Avant Garde Gothic Std;}</style></defs><title>logo</title><path class="cls-1" d="M219.93,205.12l.35-5.43c.26-3.55.61-8.76,1.24-15.38s1.48-14.66,2.87-23.85,3.18-19.55,5.86-30.74a274.78,274.78,0,0,1,11-35.67,184.15,184.15,0,0,1,8.52-18.81A143,143,0,0,1,261.32,56.6a102.13,102.13,0,0,1,15.77-17.1,75.3,75.3,0,0,1,21-12.82A71.06,71.06,0,0,1,310.36,23l1.38-.28.7-.14.8-.14c1.06-.18,2.14-.37,3.14-.5,2-.31,4.12-.52,6.2-.69a84.53,84.53,0,0,1,37.6,5.51,90,90,0,0,1,11.57,5.55,97.53,97.53,0,0,1,20.13,15.29A117.83,117.83,0,0,1,418.4,87.68c1.46,3.6,2.72,7.23,3.83,10.87.57,1.82,1,3.64,1.52,5.46l.67,2.73.31,1.36.15.68.09.41,0,.16.06.31.12.63.15.89c.09.58.2,1.24.25,1.69.14,1,.25,2,.34,2.91.2,1.9.33,3.74.42,5.57.17,3.65.23,7.21.11,10.73s-.33,7-.66,10.43-.87,6.82-1.49,10.16l0,.16s-.07.41-.06.31l-.06.28L424,154l-.25,1.11-.5,2.25c-.39,1.62-.8,3.28-1.23,4.8q-1.28,4.57-2.71,8.83a196,196,0,0,1-13.06,29.5,223.78,223.78,0,0,1-12.88,20.85c-3.87,5.56-7.17,9.73-9.5,12.52-1.17,1.39-2.07,2.45-2.7,3.15l-1,1.06a1.24,1.24,0,0,1-2.08-1.27v0l1.9-5.13c1.22-3.36,3-8.26,5.17-14.48s4.7-13.77,7.26-22.43a284.38,284.38,0,0,0,7.18-29c.52-2.63,1-5.32,1.35-8,.21-1.37.31-2.64.51-4l.25-2.21.12-1.13.06-.57,0-.29c0-.19,0,.1,0,0v-.13a131.46,131.46,0,0,0,.28-17.17c-.16-3-.35-6-.68-9-.18-1.49-.35-3-.56-4.44-.1-.73-.21-1.44-.34-2.12-.06-.39-.11-.57-.16-.83l-.07-.37-.14-.62-.52-2.07-.6-2.27c-.42-1.51-.88-3-1.33-4.53-.93-3-2-6-3.09-9-4.56-12-10.67-23.85-19.26-33.83A73.61,73.61,0,0,0,360.93,50a62.66,62.66,0,0,0-17.73-8.21,66.43,66.43,0,0,0-19.66-2.43c-1.68,0-3.36.12-5,.28-.86.06-1.64.16-2.44.25l-.6.07-.69.1-1.39.2A54,54,0,0,0,304,42.55a62.84,62.84,0,0,0-17.17,9.16,87.22,87.22,0,0,0-14.38,13.7c-8.62,10.19-15.24,21.79-20.73,33.18a264.78,264.78,0,0,0-13.07,33.48c-1.7,5.34-3.2,10.5-4.56,15.44s-2.51,9.67-3.55,14.13-1.93,8.66-2.72,12.55-1.49,7.47-2.09,10.72c-1.2,6.49-2,11.62-2.58,15.11l-.83,5.38a1.22,1.22,0,0,1-2.43-.26Z" transform="translate(-13.31 -17.71)"/><path class="cls-1" d="M100.7,211.62l-1.44.12c-.95.09-2.34.22-4.25.27l-1.51.06H91.85L90,212l-2-.11a66.34,66.34,0,0,1-9.41-1.18,76.18,76.18,0,0,1-24.25-9.16A85.13,85.13,0,0,1,28.9,178.78a77.38,77.38,0,0,1-5.4-8.27c-.83-1.48-1.64-3-2.39-4.59-.39-.78-.73-1.6-1.09-2.42l-.27-.61-.26-.7-.4-1.11c-.53-1.39-1.09-3.24-1.62-4.95s-1-3.38-1.35-5.12a97.72,97.72,0,0,1-1.95-10.65,108.25,108.25,0,0,1,4-45.56A115.13,115.13,0,0,1,42.33,52,102.74,102.74,0,0,1,85.18,22.94a95.27,95.27,0,0,1,12.91-3.51,97.45,97.45,0,0,1,13.3-1.6,89,89,0,0,1,13.32.28c1.11.07,2.2.23,3.29.36s2.18.29,3.27.47l1.63.27.95.17.71.14.71.14.9.2,1.82.42a74.21,74.21,0,0,1,13,4.6,79.32,79.32,0,0,1,11.68,6.72A94.5,94.5,0,0,1,181.28,49c10.39,12.69,17.38,26.33,22.67,39.43q2,4.92,3.66,9.76c1.11,3.23,2.11,6.42,3.05,9.57s1.8,6.25,2.57,9.31l1.09,4.5c.35,1.44.69,3,1,4.48a298.44,298.44,0,0,1,5.22,32.36c1.05,9.65,1.52,18.07,1.76,25s.21,12.36.16,16.07-.13,5.68-.13,5.68h0a1.23,1.23,0,0,1-2.43.24l-5.14-21c-1.65-6.63-3.73-14.64-6.3-23.71s-5.7-19.22-9.58-29.92c-.49-1.34-.93-2.63-1.48-4l-1.58-4.17c-1.09-2.75-2.2-5.55-3.39-8.36s-2.44-5.64-3.77-8.47-2.68-5.69-4.15-8.53a181.46,181.46,0,0,0-9.73-16.78,117.17,117.17,0,0,0-12-15.45,78.35,78.35,0,0,0-14.43-12.47,56.19,56.19,0,0,0-16.74-7.59l-1-.25-.51-.13-.71-.15-.71-.15-.35-.08c.32.06,0,0,0,0l-.15,0L127,43.93c-.82-.15-1.64-.3-2.47-.41s-1.65-.27-2.48-.34a80.82,80.82,0,0,0-10-.6,77.82,77.82,0,0,0-19.84,2.75,79.62,79.62,0,0,0-34.9,20.78,93.08,93.08,0,0,0-21.44,34.49A90.44,90.44,0,0,0,31,138.51a81,81,0,0,0,1.27,9c.26,1.47.63,2.9,1,4.33s.66,2.6,1.17,4.2l.61,2c.2.65.36,1.31.6,1.95.42,1.29.9,2.57,1.41,3.83a62.8,62.8,0,0,0,3.54,7.29,76.37,76.37,0,0,0,9,12.64,75.47,75.47,0,0,0,10.26,9.81,72.71,72.71,0,0,0,20.4,11.39,74.34,74.34,0,0,0,14.94,3.68c1.75.26,3.17.37,4.11.44l1.44.12a1.23,1.23,0,0,1,0,2.44Z" transform="translate(-13.31 -17.71)"/><path class="cls-2" d="M203.87,205.85c-3.94-5.4-7.6-11-11.08-16.69s-6.84-11.39-10.18-17.07-6.64-11.34-10-16.88c-1.7-2.76-3.39-5.5-5.12-8.2s-3.52-5.32-5.31-7.91a127.52,127.52,0,0,0-11.47-14.33,53.67,53.67,0,0,0-12.88-10.33,31,31,0,0,0-6.73-2.64,23.68,23.68,0,0,0-3.39-.6l-.21,0h-.09l-.62-.05-.61,0h-.38c-.46,0-1.15,0-1.75,0a32.79,32.79,0,0,0-14.26,3.45,36.54,36.54,0,0,0-6.42,4,41.18,41.18,0,0,0-13.64,18.22A37.62,37.62,0,0,0,87.35,152a39.16,39.16,0,0,0,.43,4.14l.14.94.19,1c.14.67.28,1.35.45,2a39.18,39.18,0,0,0,2.84,7.79,42.41,42.41,0,0,0,10.68,13.53,57.87,57.87,0,0,0,7.42,5.35c1.31.8,2.71,1.56,4,2.26l2.21,1.09,2.11,1a90,90,0,0,0,8.84,3.37c3,1,6.18,1.78,9.36,2.62s6.4,1.58,9.6,2.39l9.64,2.38a3.69,3.69,0,0,1,.23,7.09l-.1,0c-.89.28-2,.67-3,1.06s-2,.8-3,1.26c-2,.9-4,1.89-5.87,2.95a68.48,68.48,0,0,0-10.73,7.4,49,49,0,0,0-14.63,20,43.59,43.59,0,0,0-1.84,23.26,82.27,82.27,0,0,0,8.29,22.76c1.94,3.67,4,7.33,6.35,10.88s4.74,7.08,7.37,10.5c1.27,1.73,2.67,3.4,4,5.1l2.09,2.55c.38.47.69.82,1,1.21l1,1.16c2.75,3.14,5.68,6.2,8.68,9a97.25,97.25,0,0,0,19.37,14.46,72.91,72.91,0,0,0,21.6,8,67.49,67.49,0,0,0,11.41,1.29c1.93.06,3.87,0,5.82,0s3.91-.22,5.87-.46a105.24,105.24,0,0,0,23.62-5.71A160.42,160.42,0,0,0,266,335.08c3.78-2.08,7.51-4.32,11.2-6.66s7.35-4.78,11-7.32c7.22-5.08,14.25-10.54,21.16-16.24S323,293.19,329.59,287s13.13-12.49,19.54-19S361.86,255,368,248.18l0,0a1.23,1.23,0,0,1,2,1.39,269.33,269.33,0,0,1-14.27,23.91q-7.7,11.61-16.37,22.61c-5.78,7.33-11.85,14.46-18.29,21.31a278.52,278.52,0,0,1-20.38,19.7q-5.4,4.66-11.08,9.08c-3.82,2.9-7.73,5.72-11.78,8.4s-8.22,5.21-12.53,7.57A142,142,0,0,1,252,368.64a117.34,117.34,0,0,1-29.33,8.43,95.29,95.29,0,0,1-15.71,1,93.75,93.75,0,0,1-15.86-1.71,87.55,87.55,0,0,1-15.31-4.54c-2.48-1-4.88-2.06-7.26-3.21s-4.66-2.45-6.89-3.82a107.78,107.78,0,0,1-12.65-9,130.18,130.18,0,0,1-11.1-10.37c-3.48-3.63-6.67-7.39-9.74-11.32l-1.16-1.51c-.38-.5-.8-1-1.11-1.47l-2.11-2.89c-1.36-2-2.77-4-4.08-6a146,146,0,0,1-13.92-26,84.13,84.13,0,0,1-6.41-29.91,61.57,61.57,0,0,1,1.74-15.66,60,60,0,0,1,2.44-7.5,63,63,0,0,1,3.42-7,68.17,68.17,0,0,1,20.59-21.54A96.15,96.15,0,0,1,140,207.36q3.21-1.6,6.53-2.95c1.11-.44,2.22-.88,3.35-1.3s2.22-.8,3.52-1.19l.13,7.12-4.77-1.21L144,206.71c-3.2-.73-6.4-1.5-9.64-2.17s-6.5-1.43-9.81-2.26a99.37,99.37,0,0,1-9.88-3l-2.46-.89-2.32-.89c-1.67-.66-3.25-1.3-4.86-2a75,75,0,0,1-9.44-5,58.12,58.12,0,0,1-16.43-14.93,53.74,53.74,0,0,1-5.77-10c-.4-.88-.76-1.77-1.11-2.67l-.51-1.35-.49-1.45a49.73,49.73,0,0,1-1.52-5.55,52,52,0,0,1,.58-23.8,55.17,55.17,0,0,1,11-21.33,55.59,55.59,0,0,1,19.1-14.81,53.39,53.39,0,0,1,24-5c1.05,0,2,.09,3.19.21l.85.08L129,90l.61.08.52.07.4.06a44.77,44.77,0,0,1,6.28,1.43,47.61,47.61,0,0,1,5.93,2.26,52.48,52.48,0,0,1,5.43,3,67.84,67.84,0,0,1,16.84,15.52,123,123,0,0,1,11.59,17.76c1.67,3,3.19,6.1,4.67,9.17s2.87,6.15,4.18,9.25c2.66,6.19,5.07,12.42,7.39,18.65s4.49,12.48,6.65,18.73L206,204.72a1.24,1.24,0,0,1-2.16,1.14Z" transform="translate(-13.31 -17.71)"/><text class="cls-3" transform="translate(239.64 319.74) rotate(-30.26) scale(0.7)">D</text><text class="cls-3" transform="matrix(0.57, -0.41, 0.41, 0.57, 261.84, 306.48)">E</text><text class="cls-3" transform="translate(277.38 295.34) rotate(-38.77) scale(0.7)">S</text><text class="cls-3" transform="matrix(0.53, -0.46, 0.46, 0.53, 291.72, 283.7)">I</text><text class="cls-3" transform="translate(298.01 278.57) rotate(-42.91) scale(0.7)">G</text><text class="cls-3" transform="translate(319.72 258.28) rotate(-45.72) scale(0.7)">N</text><text class="cls-3" transform="matrix(0.68, -0.74, 0.74, 0.68, 337.52, 239.9)">.</text></svg>